<mxfile host="app.diagrams.net" modified="2023-01-21T17:37:31.399Z" agent="5.0 (Windows NT 10.0; Win64; x64) AppleWebKit/537.36 (KHTML, like Gecko) Chrome/109.0.0.0 Safari/537.36" etag="Bb_JxCB4_0G91_oIRY63" version="20.4.0" type="github">
  <diagram id="78aslCZPHnLV7ie905ju" name="Page-1">
    <mxGraphModel dx="2881" dy="1094" grid="1" gridSize="10" guides="1" tooltips="1" connect="1" arrows="1" fold="1" page="1" pageScale="1" pageWidth="850" pageHeight="1100" math="0" shadow="0">
      <root>
        <mxCell id="0" />
        <mxCell id="1" parent="0" />
        <mxCell id="Tm8wrHtLugqOGv2JygqX-1" value="&lt;b&gt;3-byte frame&lt;/b&gt;" style="swimlane;fontStyle=0;childLayout=stackLayout;horizontal=1;startSize=30;horizontalStack=0;resizeParent=1;resizeParentMax=0;resizeLast=0;collapsible=1;marginBottom=0;whiteSpace=wrap;html=1;gradientColor=#0061AB;" vertex="1" parent="1">
          <mxGeometry x="70" y="110" width="480" height="150" as="geometry" />
        </mxCell>
        <mxCell id="Tm8wrHtLugqOGv2JygqX-2" value="&lt;div style=&quot;font-size: 14px;&quot;&gt;&lt;font style=&quot;font-size: 14px;&quot; color=&quot;#1A12FF&quot;&gt;float&lt;/font&gt;&lt;font style=&quot;font-size: 14px;&quot;&gt;&amp;nbsp;&amp;nbsp; &amp;nbsp;&amp;nbsp;&amp;nbsp; &amp;nbsp;&amp;nbsp;&amp;nbsp;&amp;nbsp;&amp;nbsp;&amp;nbsp;&amp;nbsp;&amp;nbsp;&amp;nbsp;&amp;nbsp;&amp;nbsp;&amp;nbsp;&amp;nbsp; scale [ 3 ];&amp;nbsp;&amp;nbsp; &amp;nbsp;&amp;nbsp;&amp;nbsp; &amp;nbsp;&amp;nbsp; &lt;font color=&quot;#009157&quot;&gt;// multiply byte verts by this&lt;/font&gt;&lt;/font&gt;&lt;/div&gt;" style="text;strokeColor=none;fillColor=none;align=left;verticalAlign=middle;spacingLeft=4;spacingRight=4;overflow=hidden;points=[[0,0.5],[1,0.5]];portConstraint=eastwest;rotatable=0;whiteSpace=wrap;html=1;" vertex="1" parent="Tm8wrHtLugqOGv2JygqX-1">
          <mxGeometry y="30" width="480" height="30" as="geometry" />
        </mxCell>
        <mxCell id="Tm8wrHtLugqOGv2JygqX-3" value="&lt;font style=&quot;font-size: 14px;&quot; color=&quot;#1A12FF&quot;&gt;float&amp;nbsp;&lt;/font&gt;&lt;font style=&quot;font-size: 14px;&quot;&gt;&amp;nbsp; &amp;nbsp;&amp;nbsp;&amp;nbsp; &amp;nbsp;&amp;nbsp;&amp;nbsp;&amp;nbsp;&amp;nbsp;&amp;nbsp;&amp;nbsp;&amp;nbsp;&amp;nbsp;&amp;nbsp;&amp;nbsp;&amp;nbsp;&amp;nbsp; translate [ 3 ];&amp;nbsp;&amp;nbsp; &amp;nbsp;&lt;font color=&quot;#009157&quot;&gt;// then add this&lt;/font&gt;&lt;/font&gt;" style="text;strokeColor=none;fillColor=none;align=left;verticalAlign=middle;spacingLeft=4;spacingRight=4;overflow=hidden;points=[[0,0.5],[1,0.5]];portConstraint=eastwest;rotatable=0;whiteSpace=wrap;html=1;" vertex="1" parent="Tm8wrHtLugqOGv2JygqX-1">
          <mxGeometry y="60" width="480" height="30" as="geometry" />
        </mxCell>
        <mxCell id="Tm8wrHtLugqOGv2JygqX-4" value="&lt;font style=&quot;font-size: 14px;&quot; color=&quot;#1A12FF&quot;&gt;char&lt;/font&gt;&lt;font style=&quot;font-size: 14px;&quot;&gt;&amp;nbsp;&amp;nbsp; &amp;nbsp;&amp;nbsp;&amp;nbsp; &amp;nbsp;&amp;nbsp;&amp;nbsp;&amp;nbsp;&amp;nbsp;&amp;nbsp;&amp;nbsp;&amp;nbsp;&amp;nbsp;&amp;nbsp;&amp;nbsp;&amp;nbsp;&amp;nbsp; name [ 16 ];&amp;nbsp;&amp;nbsp; &amp;nbsp;&amp;nbsp;&amp;nbsp; &lt;font color=&quot;#009157&quot;&gt;// frame name from grabbing&lt;/font&gt;&lt;/font&gt;" style="text;strokeColor=none;fillColor=none;align=left;verticalAlign=middle;spacingLeft=4;spacingRight=4;overflow=hidden;points=[[0,0.5],[1,0.5]];portConstraint=eastwest;rotatable=0;whiteSpace=wrap;html=1;" vertex="1" parent="Tm8wrHtLugqOGv2JygqX-1">
          <mxGeometry y="90" width="480" height="30" as="geometry" />
        </mxCell>
        <mxCell id="Tm8wrHtLugqOGv2JygqX-5" value="&lt;font style=&quot;font-size: 14px;&quot; color=&quot;#0061AB&quot;&gt;dtrivertx&lt;b&gt;3&lt;/b&gt;byte_t&lt;/font&gt;&lt;font style=&quot;font-size: 14px;&quot;&gt;&lt;font color=&quot;#0061AB&quot;&gt;&amp;nbsp;&amp;nbsp; &amp;nbsp;&lt;/font&gt;verts [ 1 ];&amp;nbsp;&amp;nbsp; &amp;nbsp;&amp;nbsp;&amp;nbsp; &amp;nbsp; &lt;font color=&quot;#009157&quot;&gt;// variable sized&lt;/font&gt;&lt;/font&gt;" style="text;strokeColor=none;fillColor=none;align=left;verticalAlign=middle;spacingLeft=4;spacingRight=4;overflow=hidden;points=[[0,0.5],[1,0.5]];portConstraint=eastwest;rotatable=0;whiteSpace=wrap;html=1;" vertex="1" parent="Tm8wrHtLugqOGv2JygqX-1">
          <mxGeometry y="120" width="480" height="30" as="geometry" />
        </mxCell>
        <mxCell id="Tm8wrHtLugqOGv2JygqX-6" value="&lt;b&gt;4-byte frame&lt;/b&gt;" style="swimlane;fontStyle=0;childLayout=stackLayout;horizontal=1;startSize=30;horizontalStack=0;resizeParent=1;resizeParentMax=0;resizeLast=0;collapsible=1;marginBottom=0;whiteSpace=wrap;html=1;gradientColor=#3C0CAB;" vertex="1" parent="1">
          <mxGeometry x="70" y="350" width="480" height="150" as="geometry" />
        </mxCell>
        <mxCell id="Tm8wrHtLugqOGv2JygqX-7" value="&lt;div style=&quot;font-size: 14px;&quot;&gt;&lt;font style=&quot;font-size: 14px;&quot; color=&quot;#1A12FF&quot;&gt;float&lt;/font&gt;&lt;font style=&quot;font-size: 14px;&quot;&gt;&amp;nbsp;&amp;nbsp; &amp;nbsp;&amp;nbsp;&amp;nbsp; &amp;nbsp;&amp;nbsp;&amp;nbsp;&amp;nbsp;&amp;nbsp;&amp;nbsp;&amp;nbsp;&amp;nbsp;&amp;nbsp;&amp;nbsp;&amp;nbsp;&amp;nbsp;&amp;nbsp; scale [ 3 ];&amp;nbsp;&amp;nbsp; &amp;nbsp;&amp;nbsp;&amp;nbsp; &amp;nbsp;&amp;nbsp; &lt;font color=&quot;#009157&quot;&gt;// multiply byte verts by this&lt;/font&gt;&lt;/font&gt;&lt;/div&gt;" style="text;strokeColor=none;fillColor=none;align=left;verticalAlign=middle;spacingLeft=4;spacingRight=4;overflow=hidden;points=[[0,0.5],[1,0.5]];portConstraint=eastwest;rotatable=0;whiteSpace=wrap;html=1;" vertex="1" parent="Tm8wrHtLugqOGv2JygqX-6">
          <mxGeometry y="30" width="480" height="30" as="geometry" />
        </mxCell>
        <mxCell id="Tm8wrHtLugqOGv2JygqX-8" value="&lt;font style=&quot;font-size: 14px;&quot; color=&quot;#1A12FF&quot;&gt;float&amp;nbsp;&lt;/font&gt;&lt;font style=&quot;font-size: 14px;&quot;&gt;&amp;nbsp; &amp;nbsp;&amp;nbsp;&amp;nbsp; &amp;nbsp;&amp;nbsp;&amp;nbsp;&amp;nbsp;&amp;nbsp;&amp;nbsp;&amp;nbsp;&amp;nbsp;&amp;nbsp;&amp;nbsp;&amp;nbsp;&amp;nbsp;&amp;nbsp; translate [ 3 ];&amp;nbsp;&amp;nbsp; &amp;nbsp;&lt;font color=&quot;#009157&quot;&gt;// then add this&lt;/font&gt;&lt;/font&gt;" style="text;strokeColor=none;fillColor=none;align=left;verticalAlign=middle;spacingLeft=4;spacingRight=4;overflow=hidden;points=[[0,0.5],[1,0.5]];portConstraint=eastwest;rotatable=0;whiteSpace=wrap;html=1;" vertex="1" parent="Tm8wrHtLugqOGv2JygqX-6">
          <mxGeometry y="60" width="480" height="30" as="geometry" />
        </mxCell>
        <mxCell id="Tm8wrHtLugqOGv2JygqX-9" value="&lt;font style=&quot;font-size: 14px;&quot; color=&quot;#1A12FF&quot;&gt;char&lt;/font&gt;&lt;font style=&quot;font-size: 14px;&quot;&gt;&amp;nbsp;&amp;nbsp; &amp;nbsp;&amp;nbsp;&amp;nbsp; &amp;nbsp;&amp;nbsp;&amp;nbsp;&amp;nbsp;&amp;nbsp;&amp;nbsp;&amp;nbsp;&amp;nbsp;&amp;nbsp;&amp;nbsp;&amp;nbsp;&amp;nbsp;&amp;nbsp; name [ 16 ];&amp;nbsp;&amp;nbsp; &amp;nbsp;&amp;nbsp;&amp;nbsp; &lt;font color=&quot;#009157&quot;&gt;// frame name from grabbing&lt;/font&gt;&lt;/font&gt;" style="text;strokeColor=none;fillColor=none;align=left;verticalAlign=middle;spacingLeft=4;spacingRight=4;overflow=hidden;points=[[0,0.5],[1,0.5]];portConstraint=eastwest;rotatable=0;whiteSpace=wrap;html=1;" vertex="1" parent="Tm8wrHtLugqOGv2JygqX-6">
          <mxGeometry y="90" width="480" height="30" as="geometry" />
        </mxCell>
        <mxCell id="Tm8wrHtLugqOGv2JygqX-10" value="&lt;font style=&quot;font-size: 14px;&quot; color=&quot;#0061AB&quot;&gt;dtrivertx&lt;b&gt;4&lt;/b&gt;byte_t&lt;/font&gt;&lt;font style=&quot;font-size: 14px;&quot;&gt;&lt;font color=&quot;#0061AB&quot;&gt;&amp;nbsp;&amp;nbsp; &amp;nbsp;&lt;/font&gt;verts [ 1 ];&amp;nbsp;&amp;nbsp; &amp;nbsp;&amp;nbsp;&amp;nbsp; &amp;nbsp; &lt;font color=&quot;#009157&quot;&gt;// variable sized&lt;/font&gt;&lt;/font&gt;" style="text;strokeColor=none;fillColor=none;align=left;verticalAlign=middle;spacingLeft=4;spacingRight=4;overflow=hidden;points=[[0,0.5],[1,0.5]];portConstraint=eastwest;rotatable=0;whiteSpace=wrap;html=1;" vertex="1" parent="Tm8wrHtLugqOGv2JygqX-6">
          <mxGeometry y="120" width="480" height="30" as="geometry" />
        </mxCell>
        <mxCell id="Tm8wrHtLugqOGv2JygqX-11" value="&lt;div&gt;&lt;b&gt;6-byte frame&lt;/b&gt;&lt;/div&gt;" style="swimlane;fontStyle=0;childLayout=stackLayout;horizontal=1;startSize=30;horizontalStack=0;resizeParent=1;resizeParentMax=0;resizeLast=0;collapsible=1;marginBottom=0;whiteSpace=wrap;html=1;gradientColor=#700AAB;" vertex="1" parent="1">
          <mxGeometry x="70" y="590" width="480" height="150" as="geometry" />
        </mxCell>
        <mxCell id="Tm8wrHtLugqOGv2JygqX-12" value="&lt;div style=&quot;font-size: 14px;&quot;&gt;&lt;font style=&quot;font-size: 14px;&quot; color=&quot;#1A12FF&quot;&gt;float&lt;/font&gt;&lt;font style=&quot;font-size: 14px;&quot;&gt;&amp;nbsp;&amp;nbsp; &amp;nbsp;&amp;nbsp;&amp;nbsp; &amp;nbsp;&amp;nbsp;&amp;nbsp;&amp;nbsp;&amp;nbsp;&amp;nbsp;&amp;nbsp;&amp;nbsp;&amp;nbsp;&amp;nbsp;&amp;nbsp;&amp;nbsp;&amp;nbsp; scale [ 3 ];&amp;nbsp;&amp;nbsp; &amp;nbsp;&amp;nbsp;&amp;nbsp; &amp;nbsp;&amp;nbsp; &lt;font color=&quot;#009157&quot;&gt;// multiply byte verts by this&lt;/font&gt;&lt;/font&gt;&lt;/div&gt;" style="text;strokeColor=none;fillColor=none;align=left;verticalAlign=middle;spacingLeft=4;spacingRight=4;overflow=hidden;points=[[0,0.5],[1,0.5]];portConstraint=eastwest;rotatable=0;whiteSpace=wrap;html=1;" vertex="1" parent="Tm8wrHtLugqOGv2JygqX-11">
          <mxGeometry y="30" width="480" height="30" as="geometry" />
        </mxCell>
        <mxCell id="Tm8wrHtLugqOGv2JygqX-13" value="&lt;font style=&quot;font-size: 14px;&quot; color=&quot;#1A12FF&quot;&gt;float&amp;nbsp;&lt;/font&gt;&lt;font style=&quot;font-size: 14px;&quot;&gt;&amp;nbsp; &amp;nbsp;&amp;nbsp;&amp;nbsp; &amp;nbsp;&amp;nbsp;&amp;nbsp;&amp;nbsp;&amp;nbsp;&amp;nbsp;&amp;nbsp;&amp;nbsp;&amp;nbsp;&amp;nbsp;&amp;nbsp;&amp;nbsp;&amp;nbsp; translate [ 3 ];&amp;nbsp;&amp;nbsp; &amp;nbsp;&lt;font color=&quot;#009157&quot;&gt;// then add this&lt;/font&gt;&lt;/font&gt;" style="text;strokeColor=none;fillColor=none;align=left;verticalAlign=middle;spacingLeft=4;spacingRight=4;overflow=hidden;points=[[0,0.5],[1,0.5]];portConstraint=eastwest;rotatable=0;whiteSpace=wrap;html=1;" vertex="1" parent="Tm8wrHtLugqOGv2JygqX-11">
          <mxGeometry y="60" width="480" height="30" as="geometry" />
        </mxCell>
        <mxCell id="Tm8wrHtLugqOGv2JygqX-14" value="&lt;font style=&quot;font-size: 14px;&quot; color=&quot;#1A12FF&quot;&gt;char&lt;/font&gt;&lt;font style=&quot;font-size: 14px;&quot;&gt;&amp;nbsp;&amp;nbsp; &amp;nbsp;&amp;nbsp;&amp;nbsp; &amp;nbsp;&amp;nbsp;&amp;nbsp;&amp;nbsp;&amp;nbsp;&amp;nbsp;&amp;nbsp;&amp;nbsp;&amp;nbsp;&amp;nbsp;&amp;nbsp;&amp;nbsp;&amp;nbsp; name [ 16 ];&amp;nbsp;&amp;nbsp; &amp;nbsp;&amp;nbsp;&amp;nbsp; &lt;font color=&quot;#009157&quot;&gt;// frame name from grabbing&lt;/font&gt;&lt;/font&gt;" style="text;strokeColor=none;fillColor=none;align=left;verticalAlign=middle;spacingLeft=4;spacingRight=4;overflow=hidden;points=[[0,0.5],[1,0.5]];portConstraint=eastwest;rotatable=0;whiteSpace=wrap;html=1;" vertex="1" parent="Tm8wrHtLugqOGv2JygqX-11">
          <mxGeometry y="90" width="480" height="30" as="geometry" />
        </mxCell>
        <mxCell id="Tm8wrHtLugqOGv2JygqX-15" value="&lt;font style=&quot;font-size: 14px;&quot; color=&quot;#0061AB&quot;&gt;dtrivertx&lt;b&gt;6&lt;/b&gt;byte_t&lt;/font&gt;&lt;font style=&quot;font-size: 14px;&quot;&gt;&lt;font color=&quot;#0061AB&quot;&gt;&amp;nbsp;&amp;nbsp; &amp;nbsp;&lt;/font&gt;verts [ 1 ];&amp;nbsp;&amp;nbsp; &amp;nbsp;&amp;nbsp;&amp;nbsp; &amp;nbsp; &lt;font color=&quot;#009157&quot;&gt;// variable sized&lt;/font&gt;&lt;/font&gt;" style="text;strokeColor=none;fillColor=none;align=left;verticalAlign=middle;spacingLeft=4;spacingRight=4;overflow=hidden;points=[[0,0.5],[1,0.5]];portConstraint=eastwest;rotatable=0;whiteSpace=wrap;html=1;" vertex="1" parent="Tm8wrHtLugqOGv2JygqX-11">
          <mxGeometry y="120" width="480" height="30" as="geometry" />
        </mxCell>
        <mxCell id="Tm8wrHtLugqOGv2JygqX-16" value="These are structs, and the only difference between the 3" style="shape=parallelogram;perimeter=parallelogramPerimeter;whiteSpace=wrap;html=1;fixedSize=1;fontSize=14;fontColor=#0061AB;gradientColor=#AEE0E8;" vertex="1" parent="1">
          <mxGeometry x="-280" y="440" width="240" height="90" as="geometry" />
        </mxCell>
        <mxCell id="Tm8wrHtLugqOGv2JygqX-17" style="edgeStyle=orthogonalEdgeStyle;rounded=0;orthogonalLoop=1;jettySize=auto;html=1;fontSize=14;fontColor=#0061AB;" edge="1" parent="1" source="Tm8wrHtLugqOGv2JygqX-5" target="Tm8wrHtLugqOGv2JygqX-16">
          <mxGeometry relative="1" as="geometry" />
        </mxCell>
        <mxCell id="Tm8wrHtLugqOGv2JygqX-18" style="edgeStyle=orthogonalEdgeStyle;rounded=0;orthogonalLoop=1;jettySize=auto;html=1;fontSize=14;fontColor=#0061AB;" edge="1" parent="1" source="Tm8wrHtLugqOGv2JygqX-10" target="Tm8wrHtLugqOGv2JygqX-16">
          <mxGeometry relative="1" as="geometry" />
        </mxCell>
        <mxCell id="Tm8wrHtLugqOGv2JygqX-19" style="edgeStyle=orthogonalEdgeStyle;rounded=0;orthogonalLoop=1;jettySize=auto;html=1;entryX=0.5;entryY=1;entryDx=0;entryDy=0;fontSize=14;fontColor=#0061AB;" edge="1" parent="1" source="Tm8wrHtLugqOGv2JygqX-15" target="Tm8wrHtLugqOGv2JygqX-16">
          <mxGeometry relative="1" as="geometry" />
        </mxCell>
        <mxCell id="Tm8wrHtLugqOGv2JygqX-20" value="dtrivertx6byte_t" style="swimlane;fontStyle=1;childLayout=stackLayout;horizontal=1;startSize=30;horizontalStack=0;resizeParent=1;resizeParentMax=0;resizeLast=0;collapsible=1;marginBottom=0;whiteSpace=wrap;html=1;gradientColor=#EDABAB;fontSize=14;" vertex="1" parent="1">
          <mxGeometry x="630" y="790" width="480" height="90" as="geometry" />
        </mxCell>
        <mxCell id="Tm8wrHtLugqOGv2JygqX-21" value="&lt;div style=&quot;font-size: 14px;&quot;&gt;&lt;font color=&quot;#1A12FF&quot;&gt;unsigned &lt;b&gt;short&lt;/b&gt;&lt;/font&gt;&lt;font style=&quot;font-size: 14px;&quot;&gt;&lt;b&gt; &lt;/b&gt;&amp;nbsp;&amp;nbsp; v [ 3 ];&amp;nbsp;&amp;nbsp; &amp;nbsp;&amp;nbsp;&amp;nbsp; &amp;nbsp;&amp;nbsp;&amp;nbsp;&amp;nbsp;&amp;nbsp;&amp;nbsp;&amp;nbsp;&amp;nbsp;&amp;nbsp;&amp;nbsp;&amp;nbsp; &lt;font color=&quot;#009157&quot;&gt;//scaled byte to fit in frame mins/maxs&lt;br&gt;&lt;/font&gt;&lt;/font&gt;&lt;/div&gt;" style="text;strokeColor=none;fillColor=none;align=left;verticalAlign=middle;spacingLeft=4;spacingRight=4;overflow=hidden;points=[[0,0.5],[1,0.5]];portConstraint=eastwest;rotatable=0;whiteSpace=wrap;html=1;" vertex="1" parent="Tm8wrHtLugqOGv2JygqX-20">
          <mxGeometry y="30" width="480" height="30" as="geometry" />
        </mxCell>
        <mxCell id="Tm8wrHtLugqOGv2JygqX-22" value="&lt;font style=&quot;font-size: 14px;&quot; color=&quot;#1A12FF&quot;&gt;unsigned short &lt;/font&gt;&lt;font style=&quot;font-size: 14px;&quot;&gt;&amp;nbsp;&amp;nbsp; lightnormalindex;&lt;/font&gt;" style="text;strokeColor=none;fillColor=none;align=left;verticalAlign=middle;spacingLeft=4;spacingRight=4;overflow=hidden;points=[[0,0.5],[1,0.5]];portConstraint=eastwest;rotatable=0;whiteSpace=wrap;html=1;" vertex="1" parent="Tm8wrHtLugqOGv2JygqX-20">
          <mxGeometry y="60" width="480" height="30" as="geometry" />
        </mxCell>
        <mxCell id="Tm8wrHtLugqOGv2JygqX-23" style="edgeStyle=orthogonalEdgeStyle;rounded=0;orthogonalLoop=1;jettySize=auto;html=1;entryX=0.5;entryY=0;entryDx=0;entryDy=0;fontSize=14;fontColor=#0061AB;" edge="1" parent="1" source="Tm8wrHtLugqOGv2JygqX-15" target="Tm8wrHtLugqOGv2JygqX-20">
          <mxGeometry relative="1" as="geometry" />
        </mxCell>
        <mxCell id="Tm8wrHtLugqOGv2JygqX-24" value="dtrivertx4byte_t" style="swimlane;fontStyle=1;childLayout=stackLayout;horizontal=1;startSize=30;horizontalStack=0;resizeParent=1;resizeParentMax=0;resizeLast=0;collapsible=1;marginBottom=0;whiteSpace=wrap;html=1;gradientColor=#EDABAB;fontSize=14;" vertex="1" parent="1">
          <mxGeometry x="630" y="540" width="480" height="90" as="geometry" />
        </mxCell>
        <mxCell id="Tm8wrHtLugqOGv2JygqX-25" value="&lt;div style=&quot;font-size: 14px;&quot;&gt;&lt;font color=&quot;#1A12FF&quot;&gt;unsigned &lt;b&gt;long&lt;/b&gt;&amp;nbsp;&amp;nbsp;&amp;nbsp;&amp;nbsp; &lt;/font&gt;&lt;font style=&quot;font-size: 14px;&quot;&gt;v;&amp;nbsp;&amp;nbsp; &amp;nbsp;&amp;nbsp;&amp;nbsp; &amp;nbsp;&amp;nbsp;&amp;nbsp;&amp;nbsp;&amp;nbsp;&amp;nbsp;&amp;nbsp;&amp;nbsp;&amp;nbsp;&amp;nbsp;&amp;nbsp;&amp;nbsp;&amp;nbsp;&amp;nbsp;&amp;nbsp;&amp;nbsp;&amp;nbsp;&amp;nbsp; &lt;font color=&quot;#009157&quot;&gt;//scaled byte to fit in frame mins/maxs&lt;br&gt;&lt;/font&gt;&lt;/font&gt;&lt;/div&gt;" style="text;strokeColor=none;fillColor=none;align=left;verticalAlign=middle;spacingLeft=4;spacingRight=4;overflow=hidden;points=[[0,0.5],[1,0.5]];portConstraint=eastwest;rotatable=0;whiteSpace=wrap;html=1;" vertex="1" parent="Tm8wrHtLugqOGv2JygqX-24">
          <mxGeometry y="30" width="480" height="30" as="geometry" />
        </mxCell>
        <mxCell id="Tm8wrHtLugqOGv2JygqX-26" value="&lt;font style=&quot;font-size: 14px;&quot; color=&quot;#1A12FF&quot;&gt;unsigned short &lt;/font&gt;&lt;font style=&quot;font-size: 14px;&quot;&gt;&amp;nbsp;&amp;nbsp; lightnormalindex];&lt;/font&gt;" style="text;strokeColor=none;fillColor=none;align=left;verticalAlign=middle;spacingLeft=4;spacingRight=4;overflow=hidden;points=[[0,0.5],[1,0.5]];portConstraint=eastwest;rotatable=0;whiteSpace=wrap;html=1;" vertex="1" parent="Tm8wrHtLugqOGv2JygqX-24">
          <mxGeometry y="60" width="480" height="30" as="geometry" />
        </mxCell>
        <mxCell id="Tm8wrHtLugqOGv2JygqX-27" style="edgeStyle=orthogonalEdgeStyle;rounded=0;orthogonalLoop=1;jettySize=auto;html=1;entryX=0.5;entryY=0;entryDx=0;entryDy=0;fontSize=14;fontColor=#0061AB;" edge="1" parent="1" source="Tm8wrHtLugqOGv2JygqX-10" target="Tm8wrHtLugqOGv2JygqX-24">
          <mxGeometry relative="1" as="geometry" />
        </mxCell>
        <mxCell id="Tm8wrHtLugqOGv2JygqX-28" style="edgeStyle=orthogonalEdgeStyle;rounded=0;orthogonalLoop=1;jettySize=auto;html=1;entryX=0;entryY=0.5;entryDx=0;entryDy=0;fontSize=14;fontColor=#14140C;" edge="1" parent="1" source="Tm8wrHtLugqOGv2JygqX-29" target="Tm8wrHtLugqOGv2JygqX-34">
          <mxGeometry relative="1" as="geometry" />
        </mxCell>
        <mxCell id="Tm8wrHtLugqOGv2JygqX-29" value="dtrivertx3byte_t" style="swimlane;fontStyle=1;childLayout=stackLayout;horizontal=1;startSize=30;horizontalStack=0;resizeParent=1;resizeParentMax=0;resizeLast=0;collapsible=1;marginBottom=0;whiteSpace=wrap;html=1;gradientColor=#EDABAB;fontSize=14;" vertex="1" parent="1">
          <mxGeometry x="630" y="300" width="480" height="90" as="geometry" />
        </mxCell>
        <mxCell id="Tm8wrHtLugqOGv2JygqX-30" value="&lt;div style=&quot;font-size: 14px;&quot;&gt;&lt;font color=&quot;#1A12FF&quot;&gt;unsigned &lt;b&gt;char&lt;/b&gt;&amp;nbsp;&amp;nbsp;&amp;nbsp; &lt;/font&gt;&lt;font style=&quot;font-size: 14px;&quot;&gt;v[3];&amp;nbsp;&amp;nbsp; &amp;nbsp;&amp;nbsp;&amp;nbsp; &amp;nbsp;&amp;nbsp;&amp;nbsp;&amp;nbsp;&amp;nbsp;&amp;nbsp;&amp;nbsp;&amp;nbsp;&amp;nbsp;&amp;nbsp;&amp;nbsp;&amp;nbsp;&amp;nbsp;&amp;nbsp; &lt;font color=&quot;#009157&quot;&gt;//scaled byte to fit in frame mins/maxs&lt;br&gt;&lt;/font&gt;&lt;/font&gt;&lt;/div&gt;" style="text;strokeColor=none;fillColor=none;align=left;verticalAlign=middle;spacingLeft=4;spacingRight=4;overflow=hidden;points=[[0,0.5],[1,0.5]];portConstraint=eastwest;rotatable=0;whiteSpace=wrap;html=1;" vertex="1" parent="Tm8wrHtLugqOGv2JygqX-29">
          <mxGeometry y="30" width="480" height="30" as="geometry" />
        </mxCell>
        <mxCell id="Tm8wrHtLugqOGv2JygqX-31" value="&lt;font style=&quot;font-size: 14px;&quot; color=&quot;#1A12FF&quot;&gt;unsigned short &lt;/font&gt;&lt;font style=&quot;font-size: 14px;&quot;&gt;&amp;nbsp;&amp;nbsp; lightnormalindex;&lt;/font&gt;" style="text;strokeColor=none;fillColor=none;align=left;verticalAlign=middle;spacingLeft=4;spacingRight=4;overflow=hidden;points=[[0,0.5],[1,0.5]];portConstraint=eastwest;rotatable=0;whiteSpace=wrap;html=1;" vertex="1" parent="Tm8wrHtLugqOGv2JygqX-29">
          <mxGeometry y="60" width="480" height="30" as="geometry" />
        </mxCell>
        <mxCell id="Tm8wrHtLugqOGv2JygqX-32" style="edgeStyle=orthogonalEdgeStyle;rounded=0;orthogonalLoop=1;jettySize=auto;html=1;entryX=0.5;entryY=0;entryDx=0;entryDy=0;fontSize=14;fontColor=#0061AB;" edge="1" parent="1" source="Tm8wrHtLugqOGv2JygqX-5" target="Tm8wrHtLugqOGv2JygqX-29">
          <mxGeometry relative="1" as="geometry" />
        </mxCell>
        <mxCell id="Tm8wrHtLugqOGv2JygqX-33" value="Vertex &lt;b&gt;Resolution&lt;br&gt;&lt;/b&gt;(MD2 Header)&lt;b&gt;&lt;br&gt;&lt;/b&gt;" style="ellipse;whiteSpace=wrap;html=1;fontSize=14;fontColor=#14140C;gradientColor=#FFFF99;" vertex="1" parent="1">
          <mxGeometry x="1188" y="160" width="175" height="70" as="geometry" />
        </mxCell>
        <mxCell id="Tm8wrHtLugqOGv2JygqX-34" value="0" style="ellipse;whiteSpace=wrap;html=1;aspect=fixed;fontSize=14;fontColor=#14140C;gradientColor=#FFFF99;fontStyle=1" vertex="1" parent="1">
          <mxGeometry x="1235" y="305" width="80" height="80" as="geometry" />
        </mxCell>
        <mxCell id="Tm8wrHtLugqOGv2JygqX-35" value="1" style="ellipse;whiteSpace=wrap;html=1;aspect=fixed;fontSize=14;fontColor=#14140C;gradientColor=#FFFF99;fontStyle=1" vertex="1" parent="1">
          <mxGeometry x="1235" y="545" width="80" height="80" as="geometry" />
        </mxCell>
        <mxCell id="Tm8wrHtLugqOGv2JygqX-36" value="2" style="ellipse;whiteSpace=wrap;html=1;aspect=fixed;fontSize=14;fontColor=#14140C;gradientColor=#FFFF99;fontStyle=1" vertex="1" parent="1">
          <mxGeometry x="1235" y="795" width="80" height="80" as="geometry" />
        </mxCell>
        <mxCell id="Tm8wrHtLugqOGv2JygqX-37" style="edgeStyle=orthogonalEdgeStyle;rounded=0;orthogonalLoop=1;jettySize=auto;html=1;fontSize=14;fontColor=#14140C;" edge="1" parent="1" source="Tm8wrHtLugqOGv2JygqX-25" target="Tm8wrHtLugqOGv2JygqX-35">
          <mxGeometry relative="1" as="geometry" />
        </mxCell>
        <mxCell id="Tm8wrHtLugqOGv2JygqX-38" style="edgeStyle=orthogonalEdgeStyle;rounded=0;orthogonalLoop=1;jettySize=auto;html=1;fontSize=14;fontColor=#14140C;" edge="1" parent="1" source="Tm8wrHtLugqOGv2JygqX-21" target="Tm8wrHtLugqOGv2JygqX-36">
          <mxGeometry relative="1" as="geometry" />
        </mxCell>
        <mxCell id="Tm8wrHtLugqOGv2JygqX-39" style="edgeStyle=orthogonalEdgeStyle;rounded=0;orthogonalLoop=1;jettySize=auto;html=1;fontSize=14;fontColor=#14140C;" edge="1" parent="1" source="Tm8wrHtLugqOGv2JygqX-41" target="Tm8wrHtLugqOGv2JygqX-35">
          <mxGeometry relative="1" as="geometry" />
        </mxCell>
        <mxCell id="Tm8wrHtLugqOGv2JygqX-40" style="edgeStyle=orthogonalEdgeStyle;rounded=0;orthogonalLoop=1;jettySize=auto;html=1;entryX=0;entryY=0.5;entryDx=0;entryDy=0;fontSize=14;fontColor=#14140C;" edge="1" parent="1" source="Tm8wrHtLugqOGv2JygqX-41" target="Tm8wrHtLugqOGv2JygqX-42">
          <mxGeometry relative="1" as="geometry" />
        </mxCell>
        <mxCell id="Tm8wrHtLugqOGv2JygqX-41" value="This one is different because the vertex data is stored in a single long variable, as opposed to an array" style="shape=process;whiteSpace=wrap;html=1;backgroundOutline=1;fontSize=14;fontColor=#14140C;gradientColor=#FFF838;" vertex="1" parent="1">
          <mxGeometry x="1410" y="530" width="210" height="110" as="geometry" />
        </mxCell>
        <mxCell id="Tm8wrHtLugqOGv2JygqX-42" value="This long is bit-shifted by 3 different values to arrive at the 3-point vector" style="shape=process;whiteSpace=wrap;html=1;backgroundOutline=1;fontSize=14;fillColor=#ffe6cc;strokeColor=#d79b00;" vertex="1" parent="1">
          <mxGeometry x="1700" y="530" width="210" height="110" as="geometry" />
        </mxCell>
      </root>
    </mxGraphModel>
  </diagram>
</mxfile>
